<mxfile host="app.diagrams.net" agent="Mozilla/5.0 (Windows NT 10.0; Win64; x64; rv:143.0) Gecko/20100101 Firefox/143.0" version="28.2.3">
  <diagram name="Page-1" id="OhJJ3mjOy6TYojQHY7Uv">
    <mxGraphModel dx="2772" dy="822" grid="1" gridSize="10" guides="1" tooltips="1" connect="1" arrows="1" fold="1" page="1" pageScale="1" pageWidth="1169" pageHeight="827" math="0" shadow="0">
      <root>
        <mxCell id="0" />
        <mxCell id="1" parent="0" />
        <mxCell id="K-ESM88an505MiSwCpxi-11" value="" style="edgeStyle=orthogonalEdgeStyle;rounded=0;orthogonalLoop=1;jettySize=auto;html=1;" parent="1" source="K-ESM88an505MiSwCpxi-1" target="K-ESM88an505MiSwCpxi-10" edge="1">
          <mxGeometry relative="1" as="geometry" />
        </mxCell>
        <mxCell id="K-ESM88an505MiSwCpxi-1" value="&lt;font style=&quot;font-size: 20px;&quot;&gt;wahtype&lt;/font&gt;" style="rounded=0;whiteSpace=wrap;html=1;" parent="1" vertex="1">
          <mxGeometry x="540" y="60" width="120" height="60" as="geometry" />
        </mxCell>
        <mxCell id="iwysc34U7rKxAF9Snj9z-39" value="" style="edgeStyle=orthogonalEdgeStyle;rounded=0;orthogonalLoop=1;jettySize=auto;html=1;" parent="1" source="K-ESM88an505MiSwCpxi-10" target="iwysc34U7rKxAF9Snj9z-38" edge="1">
          <mxGeometry relative="1" as="geometry" />
        </mxCell>
        <mxCell id="iwysc34U7rKxAF9Snj9z-44" value="" style="edgeStyle=orthogonalEdgeStyle;rounded=0;orthogonalLoop=1;jettySize=auto;html=1;" parent="1" source="K-ESM88an505MiSwCpxi-10" target="iwysc34U7rKxAF9Snj9z-43" edge="1">
          <mxGeometry relative="1" as="geometry" />
        </mxCell>
        <mxCell id="iwysc34U7rKxAF9Snj9z-49" value="" style="edgeStyle=orthogonalEdgeStyle;rounded=0;orthogonalLoop=1;jettySize=auto;html=1;" parent="1" source="K-ESM88an505MiSwCpxi-10" target="iwysc34U7rKxAF9Snj9z-48" edge="1">
          <mxGeometry relative="1" as="geometry" />
        </mxCell>
        <mxCell id="iwysc34U7rKxAF9Snj9z-65" value="" style="edgeStyle=orthogonalEdgeStyle;rounded=0;orthogonalLoop=1;jettySize=auto;html=1;" parent="1" source="K-ESM88an505MiSwCpxi-10" target="iwysc34U7rKxAF9Snj9z-64" edge="1">
          <mxGeometry relative="1" as="geometry" />
        </mxCell>
        <mxCell id="iwysc34U7rKxAF9Snj9z-77" value="" style="edgeStyle=orthogonalEdgeStyle;rounded=0;orthogonalLoop=1;jettySize=auto;html=1;" parent="1" source="K-ESM88an505MiSwCpxi-10" target="iwysc34U7rKxAF9Snj9z-76" edge="1">
          <mxGeometry relative="1" as="geometry" />
        </mxCell>
        <mxCell id="iwysc34U7rKxAF9Snj9z-79" value="" style="edgeStyle=orthogonalEdgeStyle;rounded=0;orthogonalLoop=1;jettySize=auto;html=1;" parent="1" source="K-ESM88an505MiSwCpxi-10" target="iwysc34U7rKxAF9Snj9z-78" edge="1">
          <mxGeometry relative="1" as="geometry" />
        </mxCell>
        <mxCell id="K-ESM88an505MiSwCpxi-10" value="Game" style="rounded=0;whiteSpace=wrap;html=1;fontSize=20;" parent="1" vertex="1">
          <mxGeometry x="540" y="140" width="120" height="60" as="geometry" />
        </mxCell>
        <mxCell id="iwysc34U7rKxAF9Snj9z-41" value="" style="edgeStyle=orthogonalEdgeStyle;rounded=0;orthogonalLoop=1;jettySize=auto;html=1;" parent="1" source="iwysc34U7rKxAF9Snj9z-38" target="iwysc34U7rKxAF9Snj9z-40" edge="1">
          <mxGeometry relative="1" as="geometry" />
        </mxCell>
        <mxCell id="iwysc34U7rKxAF9Snj9z-46" value="" style="edgeStyle=orthogonalEdgeStyle;rounded=0;orthogonalLoop=1;jettySize=auto;html=1;" parent="1" source="iwysc34U7rKxAF9Snj9z-38" target="iwysc34U7rKxAF9Snj9z-45" edge="1">
          <mxGeometry relative="1" as="geometry" />
        </mxCell>
        <mxCell id="iwysc34U7rKxAF9Snj9z-38" value="Target Sentece" style="rounded=0;whiteSpace=wrap;html=1;fontSize=20;" parent="1" vertex="1">
          <mxGeometry x="-250" y="240" width="120" height="60" as="geometry" />
        </mxCell>
        <mxCell id="iwysc34U7rKxAF9Snj9z-40" value="Generate sentence" style="rounded=0;whiteSpace=wrap;html=1;fontSize=20;" parent="1" vertex="1">
          <mxGeometry x="-380" y="340" width="120" height="60" as="geometry" />
        </mxCell>
        <mxCell id="DoSgNZzDinJcJUlmRz6c-2" value="" style="edgeStyle=orthogonalEdgeStyle;rounded=0;orthogonalLoop=1;jettySize=auto;html=1;" edge="1" parent="1" source="iwysc34U7rKxAF9Snj9z-43" target="DoSgNZzDinJcJUlmRz6c-1">
          <mxGeometry relative="1" as="geometry" />
        </mxCell>
        <mxCell id="DoSgNZzDinJcJUlmRz6c-6" value="" style="edgeStyle=orthogonalEdgeStyle;rounded=0;orthogonalLoop=1;jettySize=auto;html=1;" edge="1" parent="1" source="iwysc34U7rKxAF9Snj9z-43" target="DoSgNZzDinJcJUlmRz6c-5">
          <mxGeometry relative="1" as="geometry" />
        </mxCell>
        <mxCell id="iwysc34U7rKxAF9Snj9z-43" value="Text handle" style="rounded=0;whiteSpace=wrap;html=1;fontSize=20;" parent="1" vertex="1">
          <mxGeometry x="10" y="240" width="120" height="60" as="geometry" />
        </mxCell>
        <mxCell id="iwysc34U7rKxAF9Snj9z-45" value="Compare" style="rounded=0;whiteSpace=wrap;html=1;fontSize=20;" parent="1" vertex="1">
          <mxGeometry x="-250" y="340" width="120" height="60" as="geometry" />
        </mxCell>
        <mxCell id="iwysc34U7rKxAF9Snj9z-51" value="" style="edgeStyle=orthogonalEdgeStyle;rounded=0;orthogonalLoop=1;jettySize=auto;html=1;" parent="1" source="iwysc34U7rKxAF9Snj9z-48" target="iwysc34U7rKxAF9Snj9z-50" edge="1">
          <mxGeometry relative="1" as="geometry" />
        </mxCell>
        <mxCell id="iwysc34U7rKxAF9Snj9z-53" value="" style="edgeStyle=orthogonalEdgeStyle;rounded=0;orthogonalLoop=1;jettySize=auto;html=1;" parent="1" source="iwysc34U7rKxAF9Snj9z-48" target="iwysc34U7rKxAF9Snj9z-52" edge="1">
          <mxGeometry relative="1" as="geometry" />
        </mxCell>
        <mxCell id="iwysc34U7rKxAF9Snj9z-54" value="" style="edgeStyle=orthogonalEdgeStyle;rounded=0;orthogonalLoop=1;jettySize=auto;html=1;" parent="1" source="iwysc34U7rKxAF9Snj9z-48" target="iwysc34U7rKxAF9Snj9z-52" edge="1">
          <mxGeometry relative="1" as="geometry" />
        </mxCell>
        <mxCell id="iwysc34U7rKxAF9Snj9z-55" value="" style="edgeStyle=orthogonalEdgeStyle;rounded=0;orthogonalLoop=1;jettySize=auto;html=1;" parent="1" source="iwysc34U7rKxAF9Snj9z-48" target="iwysc34U7rKxAF9Snj9z-52" edge="1">
          <mxGeometry relative="1" as="geometry" />
        </mxCell>
        <mxCell id="iwysc34U7rKxAF9Snj9z-57" value="" style="edgeStyle=orthogonalEdgeStyle;rounded=0;orthogonalLoop=1;jettySize=auto;html=1;" parent="1" source="iwysc34U7rKxAF9Snj9z-48" target="iwysc34U7rKxAF9Snj9z-56" edge="1">
          <mxGeometry relative="1" as="geometry" />
        </mxCell>
        <mxCell id="iwysc34U7rKxAF9Snj9z-48" value="Performance" style="rounded=0;whiteSpace=wrap;html=1;fontSize=20;" parent="1" vertex="1">
          <mxGeometry x="270" y="240" width="120" height="60" as="geometry" />
        </mxCell>
        <mxCell id="iwysc34U7rKxAF9Snj9z-50" value="Calculate WPM" style="rounded=0;whiteSpace=wrap;html=1;fontSize=20;" parent="1" vertex="1">
          <mxGeometry x="400" y="340" width="120" height="60" as="geometry" />
        </mxCell>
        <mxCell id="iwysc34U7rKxAF9Snj9z-52" value="Calculate accuracy" style="rounded=0;whiteSpace=wrap;html=1;fontSize=20;" parent="1" vertex="1">
          <mxGeometry x="140" y="340" width="120" height="60" as="geometry" />
        </mxCell>
        <mxCell id="iwysc34U7rKxAF9Snj9z-63" style="edgeStyle=orthogonalEdgeStyle;rounded=0;orthogonalLoop=1;jettySize=auto;html=1;exitX=1;exitY=0.5;exitDx=0;exitDy=0;entryX=0;entryY=0.5;entryDx=0;entryDy=0;" parent="1" source="iwysc34U7rKxAF9Snj9z-56" target="iwysc34U7rKxAF9Snj9z-50" edge="1">
          <mxGeometry relative="1" as="geometry" />
        </mxCell>
        <mxCell id="iwysc34U7rKxAF9Snj9z-56" value="&lt;div&gt;Calculate&lt;/div&gt;&lt;div&gt;time taken&lt;/div&gt;" style="rounded=0;whiteSpace=wrap;html=1;fontSize=20;" parent="1" vertex="1">
          <mxGeometry x="270" y="340" width="120" height="60" as="geometry" />
        </mxCell>
        <mxCell id="iwysc34U7rKxAF9Snj9z-67" value="" style="edgeStyle=orthogonalEdgeStyle;rounded=0;orthogonalLoop=1;jettySize=auto;html=1;" parent="1" source="iwysc34U7rKxAF9Snj9z-64" target="iwysc34U7rKxAF9Snj9z-66" edge="1">
          <mxGeometry relative="1" as="geometry" />
        </mxCell>
        <mxCell id="iwysc34U7rKxAF9Snj9z-69" value="" style="edgeStyle=orthogonalEdgeStyle;rounded=0;orthogonalLoop=1;jettySize=auto;html=1;" parent="1" source="iwysc34U7rKxAF9Snj9z-64" target="iwysc34U7rKxAF9Snj9z-68" edge="1">
          <mxGeometry relative="1" as="geometry" />
        </mxCell>
        <mxCell id="iwysc34U7rKxAF9Snj9z-71" value="" style="edgeStyle=orthogonalEdgeStyle;rounded=0;orthogonalLoop=1;jettySize=auto;html=1;" parent="1" source="iwysc34U7rKxAF9Snj9z-64" target="iwysc34U7rKxAF9Snj9z-70" edge="1">
          <mxGeometry relative="1" as="geometry" />
        </mxCell>
        <mxCell id="iwysc34U7rKxAF9Snj9z-64" value="Results" style="rounded=0;whiteSpace=wrap;html=1;fontSize=20;" parent="1" vertex="1">
          <mxGeometry x="810" y="240" width="120" height="60" as="geometry" />
        </mxCell>
        <mxCell id="iwysc34U7rKxAF9Snj9z-66" value="Display final WPM" style="rounded=0;whiteSpace=wrap;html=1;fontSize=20;" parent="1" vertex="1">
          <mxGeometry x="940" y="340" width="120" height="60" as="geometry" />
        </mxCell>
        <mxCell id="iwysc34U7rKxAF9Snj9z-68" value="Display final time" style="rounded=0;whiteSpace=wrap;html=1;fontSize=20;" parent="1" vertex="1">
          <mxGeometry x="810" y="340" width="120" height="60" as="geometry" />
        </mxCell>
        <mxCell id="iwysc34U7rKxAF9Snj9z-70" value="Display final accuracy" style="rounded=0;whiteSpace=wrap;html=1;fontSize=20;" parent="1" vertex="1">
          <mxGeometry x="680" y="340" width="120" height="60" as="geometry" />
        </mxCell>
        <mxCell id="iwysc34U7rKxAF9Snj9z-76" value="Home" style="rounded=0;whiteSpace=wrap;html=1;fontSize=20;" parent="1" vertex="1">
          <mxGeometry x="469" y="240" width="120" height="60" as="geometry" />
        </mxCell>
        <mxCell id="iwysc34U7rKxAF9Snj9z-83" style="edgeStyle=orthogonalEdgeStyle;rounded=0;orthogonalLoop=1;jettySize=auto;html=1;exitX=0.5;exitY=0;exitDx=0;exitDy=0;entryX=0.5;entryY=0;entryDx=0;entryDy=0;" parent="1" source="iwysc34U7rKxAF9Snj9z-78" target="iwysc34U7rKxAF9Snj9z-64" edge="1">
          <mxGeometry relative="1" as="geometry" />
        </mxCell>
        <mxCell id="iwysc34U7rKxAF9Snj9z-78" value="Reset" style="rounded=0;whiteSpace=wrap;html=1;fontSize=20;" parent="1" vertex="1">
          <mxGeometry x="610" y="240" width="120" height="60" as="geometry" />
        </mxCell>
        <mxCell id="DoSgNZzDinJcJUlmRz6c-7" style="edgeStyle=orthogonalEdgeStyle;rounded=0;orthogonalLoop=1;jettySize=auto;html=1;exitX=0.5;exitY=1;exitDx=0;exitDy=0;entryX=0.5;entryY=1;entryDx=0;entryDy=0;" edge="1" parent="1" source="DoSgNZzDinJcJUlmRz6c-1" target="iwysc34U7rKxAF9Snj9z-50">
          <mxGeometry relative="1" as="geometry" />
        </mxCell>
        <mxCell id="DoSgNZzDinJcJUlmRz6c-8" style="edgeStyle=orthogonalEdgeStyle;rounded=0;orthogonalLoop=1;jettySize=auto;html=1;exitX=0.5;exitY=1;exitDx=0;exitDy=0;entryX=0.5;entryY=1;entryDx=0;entryDy=0;" edge="1" parent="1" source="DoSgNZzDinJcJUlmRz6c-1" target="iwysc34U7rKxAF9Snj9z-52">
          <mxGeometry relative="1" as="geometry" />
        </mxCell>
        <mxCell id="DoSgNZzDinJcJUlmRz6c-1" value="User&#39;s input" style="rounded=0;whiteSpace=wrap;html=1;fontSize=20;" vertex="1" parent="1">
          <mxGeometry x="-120" y="340" width="120" height="60" as="geometry" />
        </mxCell>
        <mxCell id="DoSgNZzDinJcJUlmRz6c-5" value="Wrap text" style="rounded=0;whiteSpace=wrap;html=1;fontSize=20;" vertex="1" parent="1">
          <mxGeometry x="10" y="340" width="120" height="60" as="geometry" />
        </mxCell>
      </root>
    </mxGraphModel>
  </diagram>
</mxfile>
